<?xml version="1.0" standalone="yes"?>

<svg version="1.1" viewBox="0.0 0.0 960.0 540.0" fill="none" stroke="none" stroke-linecap="square" stroke-miterlimit="10" xmlns="http://www.w3.org/2000/svg" xmlns:xlink="http://www.w3.org/1999/xlink"><clipPath id="p.0"><path d="m0 0l960.0 0l0 540.0l-960.0 0l0 -540.0z" clip-rule="nonzero"></path></clipPath><g clip-path="url(#p.0)"><path fill="#000000" fill-opacity="0.0" d="m0 0l960.0 0l0 540.0l-960.0 0z" fill-rule="nonzero"></path><path fill="#6aa84f" d="m0.12335958 409.10104l0 0c0 -72.4841 87.22339 -131.24408 194.81891 -131.24408l0 0c107.59549 0 194.81891 58.75998 194.81891 131.24408l0 0c0 72.48413 -87.22342 131.24411 -194.81891 131.24411l0 0c-107.59551 0 -194.81891 -58.75998 -194.81891 -131.24411z" fill-rule="nonzero"></path><path stroke="#000000" stroke-width="2.0" stroke-linejoin="round" stroke-linecap="butt" d="m0.12335958 409.10104l0 0c0 -72.4841 87.22339 -131.24408 194.81891 -131.24408l0 0c107.59549 0 194.81891 58.75998 194.81891 131.24408l0 0c0 72.48413 -87.22342 131.24411 -194.81891 131.24411l0 0c-107.59551 0 -194.81891 -58.75998 -194.81891 -131.24411z" fill-rule="nonzero"></path><path fill="#666666" d="m0.12225115 27.586876l0 0c0 -15.122128 12.258906 -27.381035 27.381035 -27.381035l275.25958 0c7.261902 0 14.226379 2.8847792 19.361298 8.019719c5.1349487 5.13494 8.019745 12.099413 8.019745 19.361315l0 109.52085c0 15.122131 -12.258911 27.381027 -27.381042 27.381027l-275.25958 0c-15.1221285 0 -27.381035 -12.258896 -27.381035 -27.381027z" fill-rule="nonzero"></path><path stroke="#d9d9d9" stroke-width="2.0" stroke-linejoin="round" stroke-linecap="butt" d="m0.12225115 27.586876l0 0c0 -15.122128 12.258906 -27.381035 27.381035 -27.381035l275.25958 0c7.261902 0 14.226379 2.8847792 19.361298 8.019719c5.1349487 5.13494 8.019745 12.099413 8.019745 19.361315l0 109.52085c0 15.122131 -12.258911 27.381027 -27.381042 27.381027l-275.25958 0c-15.1221285 0 -27.381035 -12.258896 -27.381035 -27.381027z" fill-rule="nonzero"></path><path fill="#ffffff" d="m136.16148 85.520424l-1.0 -3.203125q-0.578125 -1.75 -1.09375 -3.484375q-0.5 -1.75 -1.015625 -3.578125l-0.125 0q-0.484375 1.828125 -1.0 3.578125q-0.5 1.734375 -1.078125 3.484375l-1.0 3.203125l6.3125 0zm0.671875 2.140625l-7.65625 0l-2.0156174 6.40625l-2.71875 0l7.1093674 -20.984375l3.0 0l7.109375 20.984375l-2.84375 0l-1.984375 -6.40625zm7.7986603 -14.578125l6.4375 0q1.734375 0 3.171875 0.3125q1.4375 0.3125 2.4375 1.046875q1.015625 0.71875 1.578125 1.90625q0.5625 1.171875 0.5625 2.90625q0 1.65625 -0.5625 2.875q-0.5625 1.21875 -1.59375 2.015625q-1.015625 0.796875 -2.4375 1.203125q-1.421875 0.40625 -3.15625 0.40625l-3.78125 0l0 8.3125l-2.65625 0l0 -20.984375zm6.109375 10.484375q2.765625 0 4.09375 -1.03125q1.328125 -1.046875 1.328125 -3.28125q0 -2.28125 -1.34375 -3.15625q-1.34375 -0.875 -4.078125 -0.875l-3.453125 0l0 8.34375l3.453125 0zm12.322662 -10.484375l2.65625 0l0 20.984375l-2.65625 0l0 -20.984375zm12.39566 5.4375l2.71875 0l2.9375 8.828125q0.359375 1.15625 0.71875 2.3125q0.375 1.140625 0.71875 2.265625l0.125 0q0.359375 -1.125 0.703125 -2.265625q0.359375 -1.15625 0.71875 -2.3125l2.9375 -8.828125l2.59375 0l-5.5 15.546875l-3.078125 0l-5.59375 -15.546875zm17.084656 13.375l4.671875 0l0 -15.046875l-3.71875 0l0 -1.6875q1.40625 -0.265625 2.4375 -0.625q1.046875 -0.375 1.890625 -0.890625l2.015625 0l0 18.25l4.21875 0l0 2.171875l-11.515625 0l0 -2.171875z" fill-rule="nonzero"></path><path fill="#cccccc" d="m86.30106 324.65326l150.905 0c3.8146973E-4 0 7.324219E-4 1.5258789E-4 9.918213E-4 4.272461E-4c2.593994E-4 2.4414062E-4 4.119873E-4 6.1035156E-4 4.119873E-4 9.765625E-4l-0.0014038086 85.02432c0 9.391907 -7.6136475 17.005554 -17.005554 17.005554l-150.90498 0l0 0c-7.7819824E-4 0 -0.0014038086 -6.1035156E-4 -0.0014038086 -0.0014038086l0.0014038086 -85.02432l0 0c0 -9.391907 7.61364 -17.005554 17.005547 -17.005554z" fill-rule="nonzero"></path><path stroke="#000000" stroke-width="2.0" stroke-linejoin="round" stroke-linecap="butt" d="m86.30106 324.65326l150.905 0c3.8146973E-4 0 7.324219E-4 1.5258789E-4 9.918213E-4 4.272461E-4c2.593994E-4 2.4414062E-4 4.119873E-4 6.1035156E-4 4.119873E-4 9.765625E-4l-0.0014038086 85.02432c0 9.391907 -7.6136475 17.005554 -17.005554 17.005554l-150.90498 0l0 0c-7.7819824E-4 0 -0.0014038086 -6.1035156E-4 -0.0014038086 -0.0014038086l0.0014038086 -85.02432l0 0c0 -9.391907 7.61364 -17.005554 17.005547 -17.005554z" fill-rule="nonzero"></path><path fill="#cccccc" d="m114.094666 349.5605l150.905 0c3.6621094E-4 0 7.324219E-4 1.2207031E-4 9.765625E-4 3.9672852E-4c2.746582E-4 2.746582E-4 4.272461E-4 6.1035156E-4 4.272461E-4 9.765625E-4l-0.0014038086 85.02432c0 9.391907 -7.6136475 17.005554 -17.005554 17.005554l-150.905 0l0 0c-7.7056885E-4 0 -0.0013961792 -6.1035156E-4 -0.0013961792 -0.0014038086l0.0013961792 -85.02432l0 0c0 -9.391907 7.6136475 -17.005524 17.005554 -17.005524z" fill-rule="nonzero"></path><path stroke="#000000" stroke-width="2.0" stroke-linejoin="round" stroke-linecap="butt" d="m114.094666 349.5605l150.905 0c3.6621094E-4 0 7.324219E-4 1.2207031E-4 9.765625E-4 3.9672852E-4c2.746582E-4 2.746582E-4 4.272461E-4 6.1035156E-4 4.272461E-4 9.765625E-4l-0.0014038086 85.02432c0 9.391907 -7.6136475 17.005554 -17.005554 17.005554l-150.905 0l0 0c-7.7056885E-4 0 -0.0013961792 -6.1035156E-4 -0.0013961792 -0.0014038086l0.0013961792 -85.02432l0 0c0 -9.391907 7.6136475 -17.005524 17.005554 -17.005524z" fill-rule="nonzero"></path><path fill="#cccccc" d="m141.88826 374.46768l150.90498 0c3.9672852E-4 0 7.324219E-4 1.2207031E-4 0.0010070801 3.9672852E-4c2.746582E-4 2.746582E-4 3.9672852E-4 6.1035156E-4 3.9672852E-4 0.0010070801l-0.0014038086 85.02429c0 9.391907 -7.613617 17.005554 -17.005524 17.005554l-150.905 0l0 0c-7.7056885E-4 0 -0.0013961792 -6.1035156E-4 -0.0013961792 -0.0014038086l0.0013961792 -85.02429l0 0c0 -9.391907 7.61364 -17.005554 17.005547 -17.005554z" fill-rule="nonzero"></path><path stroke="#000000" stroke-width="2.0" stroke-linejoin="round" stroke-linecap="butt" d="m141.88826 374.46768l150.90498 0c3.9672852E-4 0 7.324219E-4 1.2207031E-4 0.0010070801 3.9672852E-4c2.746582E-4 2.746582E-4 3.9672852E-4 6.1035156E-4 3.9672852E-4 0.0010070801l-0.0014038086 85.02429c0 9.391907 -7.613617 17.005554 -17.005524 17.005554l-150.905 0l0 0c-7.7056885E-4 0 -0.0013961792 -6.1035156E-4 -0.0013961792 -0.0014038086l0.0013961792 -85.02429l0 0c0 -9.391907 7.61364 -17.005554 17.005547 -17.005554z" fill-rule="nonzero"></path><path fill="#cccccc" d="m169.68187 399.37488l150.90498 0c3.6621094E-4 0 7.324219E-4 1.5258789E-4 0.0010070801 3.9672852E-4c2.4414062E-4 2.746582E-4 3.9672852E-4 6.1035156E-4 3.9672852E-4 0.0010070801l-0.0014038086 85.02432c0 9.391907 -7.6136475 17.005524 -17.005554 17.005524l-150.90498 0l0 0c-7.7819824E-4 0 -0.0014038086 -6.1035156E-4 -0.0014038086 -0.001373291l0.0014038086 -85.02432l0 0c0 -9.391907 7.6136475 -17.005554 17.005554 -17.005554z" fill-rule="nonzero"></path><path stroke="#000000" stroke-width="2.0" stroke-linejoin="round" stroke-linecap="butt" d="m169.68187 399.37488l150.90498 0c3.6621094E-4 0 7.324219E-4 1.5258789E-4 0.0010070801 3.9672852E-4c2.4414062E-4 2.746582E-4 3.9672852E-4 6.1035156E-4 3.9672852E-4 0.0010070801l-0.0014038086 85.02432c0 9.391907 -7.6136475 17.005524 -17.005554 17.005524l-150.90498 0l0 0c-7.7819824E-4 0 -0.0014038086 -6.1035156E-4 -0.0014038086 -0.001373291l0.0014038086 -85.02432l0 0c0 -9.391907 7.6136475 -17.005554 17.005554 -17.005554z" fill-rule="nonzero"></path><path fill="#000000" fill-opacity="0.0" d="m522.09564 34.09449l48.251953 48.25197l-48.251953 48.25196l0 -24.125977l-132.44098 0l0 -48.25197l132.44098 0z" fill-rule="nonzero"></path><path stroke="#ffffff" stroke-width="2.0" stroke-linejoin="round" stroke-linecap="butt" d="m522.09564 34.09449l48.251953 48.25197l-48.251953 48.25196l0 -24.125977l-132.44098 0l0 -48.25197l132.44098 0z" fill-rule="nonzero"></path><path fill="#666666" d="m621.9569 27.586967l0 0c0 -15.122177 12.258911 -27.381124 27.381104 -27.381124l275.25354 0c7.261902 0 14.226379 2.884789 19.361328 8.019746c5.13501 5.1349573 8.019775 12.099454 8.019775 19.361378l0 109.52122c0 15.122177 -12.258972 27.381119 -27.381104 27.381119l-275.25354 0c-15.122192 0 -27.381104 -12.258942 -27.381104 -27.381119z" fill-rule="nonzero"></path><path stroke="#d9d9d9" stroke-width="2.0" stroke-linejoin="round" stroke-linecap="butt" d="m621.9569 27.586967l0 0c0 -15.122177 12.258911 -27.381124 27.381104 -27.381124l275.25354 0c7.261902 0 14.226379 2.884789 19.361328 8.019746c5.13501 5.1349573 8.019775 12.099454 8.019775 19.361378l0 109.52122c0 15.122177 -12.258972 27.381119 -27.381104 27.381119l-275.25354 0c-15.122192 0 -27.381104 -12.258942 -27.381104 -27.381119z" fill-rule="nonzero"></path><path fill="#ffffff" d="m757.99316 85.5207l-1.0 -3.203125q-0.578125 -1.75 -1.09375 -3.484375q-0.5 -1.75 -1.015625 -3.578125l-0.125 0q-0.484375 1.828125 -1.0 3.578125q-0.5 1.734375 -1.078125 3.484375l-1.0 3.203125l6.3125 0zm0.671875 2.140625l-7.65625 0l-2.015625 6.40625l-2.71875 0l7.109375 -20.984375l3.0 0l7.109375 20.984375l-2.84375 0l-1.984375 -6.40625zm7.798706 -14.578125l6.4375 0q1.734375 0 3.171875 0.3125q1.4375 0.3125 2.4375 1.046875q1.015625 0.71875 1.578125 1.90625q0.5625 1.171875 0.5625 2.90625q0 1.65625 -0.5625 2.875q-0.5625 1.21875 -1.59375 2.015625q-1.015625 0.796875 -2.4375 1.203125q-1.421875 0.40625 -3.15625 0.40625l-3.78125 0l0 8.3125l-2.65625 0l0 -20.984375zm6.109375 10.484375q2.765625 0 4.09375 -1.03125q1.328125 -1.046875 1.328125 -3.28125q0 -2.28125 -1.34375 -3.15625q-1.34375 -0.875 -4.078125 -0.875l-3.453125 0l0 8.34375l3.453125 0zm12.322632 -10.484375l2.65625 0l0 20.984375l-2.65625 0l0 -20.984375zm12.395691 5.4375l2.71875 0l2.9375 8.828125q0.359375 1.15625 0.71875 2.3125q0.375 1.140625 0.71875 2.265625l0.125 0q0.359375 -1.125 0.703125 -2.265625q0.359375 -1.15625 0.71875 -2.3125l2.9375 -8.828125l2.59375 0l-5.5 15.546875l-3.078125 0l-5.59375 -15.546875zm15.834656 13.984375q2.296875 -2.3125 4.09375 -4.15625q1.796875 -1.859375 3.0 -3.4375q1.21875 -1.59375 1.859375 -2.921875q0.640625 -1.328125 0.640625 -2.578125q0 -1.765625 -0.96875 -2.875q-0.953125 -1.125 -2.890625 -1.125q-1.28125 0 -2.375 0.71875q-1.09375 0.71875 -1.984375 1.75l-1.5 -1.515625q1.28125 -1.40625 2.71875 -2.25q1.4375 -0.84375 3.453125 -0.84375q2.84375 0 4.46875 1.65625q1.640625 1.640625 1.640625 4.359375q0 1.4375 -0.625 2.890625q-0.625 1.453125 -1.734375 3.015625q-1.09375 1.546875 -2.625 3.234375q-1.515625 1.671875 -3.328125 3.5625q0.828125 -0.0625 1.71875 -0.125q0.90625 -0.0625 1.703125 -0.0625l5.921875 0l0 2.265625l-13.1875 0l0 -1.5625z" fill-rule="nonzero"></path><path fill="#980000" d="m570.4724 405.1719l0 0c0 -72.4841 87.22345 -131.24408 194.81891 -131.24408l0 0c107.59552 0 194.81891 58.75998 194.81891 131.24408l0 0c0 72.48413 -87.22339 131.24411 -194.81891 131.24411l0 0c-107.59546 0 -194.81891 -58.75998 -194.81891 -131.24411z" fill-rule="nonzero"></path><path stroke="#000000" stroke-width="2.0" stroke-linejoin="round" stroke-linecap="butt" d="m570.4724 405.1719l0 0c0 -72.4841 87.22345 -131.24408 194.81891 -131.24408l0 0c107.59552 0 194.81891 58.75998 194.81891 131.24408l0 0c0 72.48413 -87.22339 131.24411 -194.81891 131.24411l0 0c-107.59546 0 -194.81891 -58.75998 -194.81891 -131.24411z" fill-rule="nonzero"></path><path fill="#cccccc" d="m656.65015 320.72415l150.90497 0c4.272461E-4 0 7.324219E-4 1.2207031E-4 0.0010375977 3.9672852E-4c2.4414062E-4 2.746582E-4 3.6621094E-4 6.1035156E-4 3.6621094E-4 9.765625E-4l-0.0014038086 85.02432c0 9.391907 -7.6135864 17.005554 -17.005493 17.005554l-150.90503 0l0 0c-7.9345703E-4 0 -0.0014038086 -6.1035156E-4 -0.0014038086 -0.0014038086l0.0014038086 -85.02432l0 0c0 -9.391907 7.6136475 -17.005524 17.005554 -17.005524z" fill-rule="nonzero"></path><path stroke="#000000" stroke-width="2.0" stroke-linejoin="round" stroke-linecap="butt" stroke-dasharray="8.0,6.0" d="m656.65015 320.72415l150.90497 0c4.272461E-4 0 7.324219E-4 1.2207031E-4 0.0010375977 3.9672852E-4c2.4414062E-4 2.746582E-4 3.6621094E-4 6.1035156E-4 3.6621094E-4 9.765625E-4l-0.0014038086 85.02432c0 9.391907 -7.6135864 17.005554 -17.005493 17.005554l-150.90503 0l0 0c-7.9345703E-4 0 -0.0014038086 -6.1035156E-4 -0.0014038086 -0.0014038086l0.0014038086 -85.02432l0 0c0 -9.391907 7.6136475 -17.005524 17.005554 -17.005524z" fill-rule="nonzero"></path><path fill="#cccccc" d="m684.4437 345.63135l150.90503 0c3.6621094E-4 0 7.324219E-4 1.5258789E-4 9.765625E-4 3.9672852E-4c2.4414062E-4 2.746582E-4 4.272461E-4 6.1035156E-4 4.272461E-4 0.0010070801l-0.0014038086 85.02429c0 9.391907 -7.6136475 17.005554 -17.005554 17.005554l-150.90503 0l0 0c-7.324219E-4 0 -0.0014038086 -6.1035156E-4 -0.0014038086 -0.0014038086l0.0014038086 -85.02429l0 0c0 -9.391907 7.6136475 -17.005554 17.005554 -17.005554z" fill-rule="nonzero"></path><path stroke="#000000" stroke-width="2.0" stroke-linejoin="round" stroke-linecap="butt" stroke-dasharray="8.0,6.0" d="m684.4437 345.63135l150.90503 0c3.6621094E-4 0 7.324219E-4 1.5258789E-4 9.765625E-4 3.9672852E-4c2.4414062E-4 2.746582E-4 4.272461E-4 6.1035156E-4 4.272461E-4 0.0010070801l-0.0014038086 85.02429c0 9.391907 -7.6136475 17.005554 -17.005554 17.005554l-150.90503 0l0 0c-7.324219E-4 0 -0.0014038086 -6.1035156E-4 -0.0014038086 -0.0014038086l0.0014038086 -85.02429l0 0c0 -9.391907 7.6136475 -17.005554 17.005554 -17.005554z" fill-rule="nonzero"></path><path fill="#cccccc" d="m712.23737 370.53854l150.90497 0c3.6621094E-4 0 7.324219E-4 1.5258789E-4 9.765625E-4 3.9672852E-4c3.0517578E-4 2.746582E-4 4.272461E-4 6.1035156E-4 4.272461E-4 0.0010070801l-0.0014038086 85.02429c0 9.391907 -7.6136475 17.005554 -17.005554 17.005554l-150.90497 0l0 0c-7.9345703E-4 0 -0.0014038086 -6.1035156E-4 -0.0014038086 -0.0014038086l0.0014038086 -85.02429l0 0c0 -9.391907 7.6136475 -17.005554 17.005554 -17.005554z" fill-rule="nonzero"></path><path stroke="#000000" stroke-width="2.0" stroke-linejoin="round" stroke-linecap="butt" stroke-dasharray="8.0,6.0" d="m712.23737 370.53854l150.90497 0c3.6621094E-4 0 7.324219E-4 1.5258789E-4 9.765625E-4 3.9672852E-4c3.0517578E-4 2.746582E-4 4.272461E-4 6.1035156E-4 4.272461E-4 0.0010070801l-0.0014038086 85.02429c0 9.391907 -7.6136475 17.005554 -17.005554 17.005554l-150.90497 0l0 0c-7.9345703E-4 0 -0.0014038086 -6.1035156E-4 -0.0014038086 -0.0014038086l0.0014038086 -85.02429l0 0c0 -9.391907 7.6136475 -17.005554 17.005554 -17.005554z" fill-rule="nonzero"></path><path fill="#cccccc" d="m740.03094 395.44574l150.90497 0c4.272461E-4 0 7.324219E-4 1.5258789E-4 0.0010375977 3.9672852E-4c2.4414062E-4 2.746582E-4 3.6621094E-4 6.4086914E-4 3.6621094E-4 0.0010070801l-0.0014038086 85.02432c0 9.391907 -7.6135864 17.005524 -17.005493 17.005524l-150.90503 0l0 0c-7.9345703E-4 0 -0.0014038086 -6.1035156E-4 -0.0014038086 -0.001373291l0.0014038086 -85.02432l0 0c0 -9.391907 7.6136475 -17.005554 17.005554 -17.005554z" fill-rule="nonzero"></path><path stroke="#000000" stroke-width="2.0" stroke-linejoin="round" stroke-linecap="butt" stroke-dasharray="8.0,6.0" d="m740.03094 395.44574l150.90497 0c4.272461E-4 0 7.324219E-4 1.5258789E-4 0.0010375977 3.9672852E-4c2.4414062E-4 2.746582E-4 3.6621094E-4 6.4086914E-4 3.6621094E-4 0.0010070801l-0.0014038086 85.02432c0 9.391907 -7.6135864 17.005524 -17.005493 17.005524l-150.90503 0l0 0c-7.9345703E-4 0 -0.0014038086 -6.1035156E-4 -0.0014038086 -0.001373291l0.0014038086 -85.02432l0 0c0 -9.391907 7.6136475 -17.005554 17.005554 -17.005554z" fill-rule="nonzero"></path></g></svg>

