<?xml version="1.0" standalone="yes"?>

<svg version="1.1" viewBox="0.0 0.0 960.0 540.0" fill="none" stroke="none" stroke-linecap="square" stroke-miterlimit="10" xmlns="http://www.w3.org/2000/svg" xmlns:xlink="http://www.w3.org/1999/xlink"><clipPath id="p.0"><path d="m0 0l960.0 0l0 540.0l-960.0 0l0 -540.0z" clip-rule="nonzero"></path></clipPath><g clip-path="url(#p.0)"><path fill="#000000" fill-opacity="0.0" d="m0 0l960.0 0l0 540.0l-960.0 0z" fill-rule="nonzero"></path><path fill="#cfe2f3" d="m0.12225538 27.586878l0 0c0 -15.122128 12.258907 -27.381035 27.381035 -27.381035l275.25958 0c7.261902 0 14.226349 2.8847795 19.361298 8.01972c5.1349487 5.13494 8.019714 12.099413 8.019714 19.361315l0 109.52085c0 15.122131 -12.258911 27.381042 -27.381012 27.381042l-275.25958 0c-15.122128 0 -27.381035 -12.258911 -27.381035 -27.381042z" fill-rule="nonzero"></path><path stroke="#000000" stroke-width="2.0" stroke-linejoin="round" stroke-linecap="butt" d="m0.12225538 27.586878l0 0c0 -15.122128 12.258907 -27.381035 27.381035 -27.381035l275.25958 0c7.261902 0 14.226349 2.8847795 19.361298 8.01972c5.1349487 5.13494 8.019714 12.099413 8.019714 19.361315l0 109.52085c0 15.122131 -12.258911 27.381042 -27.381012 27.381042l-275.25958 0c-15.122128 0 -27.381035 -12.258911 -27.381035 -27.381042z" fill-rule="nonzero"></path><path fill="#000000" d="m136.1615 85.520424l-1.0 -3.203125q-0.578125 -1.75 -1.09375 -3.484375q-0.5 -1.75 -1.015625 -3.578125l-0.125 0q-0.484375 1.828125 -1.0 3.578125q-0.5 1.734375 -1.078125 3.484375l-1.0 3.203125l6.3125 0zm0.671875 2.140625l-7.65625 0l-2.0156326 6.40625l-2.71875 0l7.1093826 -20.984375l3.0 0l7.109375 20.984375l-2.84375 0l-1.984375 -6.40625zm7.7986603 -14.578125l6.4375 0q1.734375 0 3.171875 0.3125q1.4375 0.3125 2.4375 1.046875q1.015625 0.71875 1.578125 1.90625q0.5625 1.171875 0.5625 2.90625q0 1.65625 -0.5625 2.875q-0.5625 1.21875 -1.59375 2.015625q-1.015625 0.796875 -2.4375 1.203125q-1.421875 0.40625 -3.15625 0.40625l-3.78125 0l0 8.3125l-2.65625 0l0 -20.984375zm6.109375 10.484375q2.765625 0 4.09375 -1.03125q1.328125 -1.046875 1.328125 -3.28125q0 -2.28125 -1.34375 -3.15625q-1.34375 -0.875 -4.078125 -0.875l-3.453125 0l0 8.34375l3.453125 0zm12.322662 -10.484375l2.65625 0l0 20.984375l-2.65625 0l0 -20.984375zm12.39566 5.4375l2.71875 0l2.9375 8.828125q0.359375 1.15625 0.71875 2.3125q0.375 1.140625 0.71875 2.265625l0.125 0q0.359375 -1.125 0.703125 -2.265625q0.359375 -1.15625 0.71875 -2.3125l2.9375 -8.828125l2.59375 0l-5.5 15.546875l-3.078125 0l-5.59375 -15.546875zm17.084656 13.375l4.671875 0l0 -15.046875l-3.71875 0l0 -1.6875q1.40625 -0.265625 2.4375 -0.625q1.046875 -0.375 1.890625 -0.890625l2.015625 0l0 18.25l4.21875 0l0 2.171875l-11.515625 0l0 -2.171875z" fill-rule="nonzero"></path><path fill="#cfe2f3" d="m630.11053 27.586878l0 0c0 -15.122128 12.258911 -27.381035 27.381042 -27.381035l275.25958 0c7.261902 0 14.226318 2.8847795 19.361267 8.01972c5.1349487 5.13494 8.019714 12.099413 8.019714 19.361315l0 109.52085c0 15.122131 -12.258911 27.381042 -27.380981 27.381042l-275.25958 0c-15.122131 0 -27.381042 -12.258911 -27.381042 -27.381042z" fill-rule="nonzero"></path><path stroke="#000000" stroke-width="2.0" stroke-linejoin="round" stroke-linecap="butt" d="m630.11053 27.586878l0 0c0 -15.122128 12.258911 -27.381035 27.381042 -27.381035l275.25958 0c7.261902 0 14.226318 2.8847795 19.361267 8.01972c5.1349487 5.13494 8.019714 12.099413 8.019714 19.361315l0 109.52085c0 15.122131 -12.258911 27.381042 -27.380981 27.381042l-275.25958 0c-15.122131 0 -27.381042 -12.258911 -27.381042 -27.381042z" fill-rule="nonzero"></path><path fill="#000000" d="m766.1498 85.520424l-1.0 -3.203125q-0.578125 -1.75 -1.09375 -3.484375q-0.5 -1.75 -1.015625 -3.578125l-0.125 0q-0.484375 1.828125 -1.0 3.578125q-0.5 1.734375 -1.078125 3.484375l-1.0 3.203125l6.3125 0zm0.671875 2.140625l-7.65625 0l-2.015625 6.40625l-2.71875 0l7.109375 -20.984375l3.0 0l7.109375 20.984375l-2.84375 0l-1.984375 -6.40625zm7.798645 -14.578125l6.4375 0q1.734375 0 3.171875 0.3125q1.4375 0.3125 2.4375 1.046875q1.015625 0.71875 1.578125 1.90625q0.5625 1.171875 0.5625 2.90625q0 1.65625 -0.5625 2.875q-0.5625 1.21875 -1.59375 2.015625q-1.015625 0.796875 -2.4375 1.203125q-1.421875 0.40625 -3.15625 0.40625l-3.78125 0l0 8.3125l-2.65625 0l0 -20.984375zm6.109375 10.484375q2.765625 0 4.09375 -1.03125q1.328125 -1.046875 1.328125 -3.28125q0 -2.28125 -1.34375 -3.15625q-1.34375 -0.875 -4.078125 -0.875l-3.453125 0l0 8.34375l3.453125 0zm12.322632 -10.484375l2.65625 0l0 20.984375l-2.65625 0l0 -20.984375zm12.395691 5.4375l2.71875 0l2.9375 8.828125q0.359375 1.15625 0.71875 2.3125q0.375 1.140625 0.71875 2.265625l0.125 0q0.359375 -1.125 0.703125 -2.265625q0.359375 -1.15625 0.71875 -2.3125l2.9375 -8.828125l2.59375 0l-5.5 15.546875l-3.078125 0l-5.59375 -15.546875zm15.834656 13.984375q2.296875 -2.3125 4.09375 -4.15625q1.796875 -1.859375 3.0 -3.4375q1.21875 -1.59375 1.859375 -2.921875q0.640625 -1.328125 0.640625 -2.578125q0 -1.765625 -0.96875 -2.875q-0.953125 -1.125 -2.890625 -1.125q-1.28125 0 -2.375 0.71875q-1.09375 0.71875 -1.984375 1.75l-1.5 -1.515625q1.28125 -1.40625 2.71875 -2.25q1.4375 -0.84375 3.453125 -0.84375q2.84375 0 4.46875 1.65625q1.640625 1.640625 1.640625 4.359375q0 1.4375 -0.625 2.890625q-0.625 1.453125 -1.734375 3.015625q-1.09375 1.546875 -2.625 3.234375q-1.515625 1.671875 -3.328125 3.5625q0.828125 -0.0625 1.71875 -0.125q0.90625 -0.0625 1.703125 -0.0625l5.921875 0l0 2.265625l-13.1875 0l0 -1.5625z" fill-rule="nonzero"></path><path fill="#000000" fill-opacity="0.0" d="m330.1439 82.347305l299.9849 0" fill-rule="nonzero"></path><path stroke="#000000" stroke-width="2.0" stroke-linejoin="round" stroke-linecap="butt" d="m330.14392 82.347305l287.98486 0" fill-rule="evenodd"></path><path fill="#000000" stroke="#000000" stroke-width="2.0" stroke-linecap="butt" d="m618.1288 85.650764l9.076172 -3.3034592l-9.076172 -3.3034668z" fill-rule="evenodd"></path><path fill="#cfe2f3" d="m53.616024 363.46036l150.905 0c3.6621094E-4 0 7.171631E-4 1.5258789E-4 9.918213E-4 3.9672852E-4c2.593994E-4 2.746582E-4 3.9672852E-4 6.4086914E-4 3.9672852E-4 0.0010070801l-0.0013885498 85.02432c0 9.391907 -7.6136475 17.005554 -17.005554 17.005554l-150.905 0l0 0c-7.7056885E-4 0 -0.0013999939 -6.4086914E-4 -0.0013999939 -0.0014038086l0.0013999939 -85.02432l0 0c0 -9.391907 7.6136436 -17.005554 17.00555 -17.005554z" fill-rule="nonzero"></path><path stroke="#000000" stroke-width="2.0" stroke-linejoin="round" stroke-linecap="butt" d="m53.616024 363.46036l150.905 0c3.6621094E-4 0 7.171631E-4 1.5258789E-4 9.918213E-4 3.9672852E-4c2.593994E-4 2.746582E-4 3.9672852E-4 6.4086914E-4 3.9672852E-4 0.0010070801l-0.0013885498 85.02432c0 9.391907 -7.6136475 17.005554 -17.005554 17.005554l-150.905 0l0 0c-7.7056885E-4 0 -0.0013999939 -6.4086914E-4 -0.0013999939 -0.0014038086l0.0013999939 -85.02432l0 0c0 -9.391907 7.6136436 -17.005554 17.00555 -17.005554z" fill-rule="nonzero"></path><path fill="#cfe2f3" d="m81.40962 388.36755l150.905 0c3.6621094E-4 0 7.324219E-4 1.5258789E-4 9.918213E-4 4.272461E-4c2.593994E-4 2.4414062E-4 4.119873E-4 6.1035156E-4 4.119873E-4 9.765625E-4l-0.0014038086 85.02432c0 9.391907 -7.6136475 17.005554 -17.005554 17.005554l-150.905 0l0 0c-7.7819824E-4 0 -0.0014038086 -6.4086914E-4 -0.0014038086 -0.0014038086l0.0014038086 -85.02432l0 0c0 -9.391907 7.61364 -17.005554 17.005547 -17.005554z" fill-rule="nonzero"></path><path stroke="#000000" stroke-width="2.0" stroke-linejoin="round" stroke-linecap="butt" d="m81.40962 388.36755l150.905 0c3.6621094E-4 0 7.324219E-4 1.5258789E-4 9.918213E-4 4.272461E-4c2.593994E-4 2.4414062E-4 4.119873E-4 6.1035156E-4 4.119873E-4 9.765625E-4l-0.0014038086 85.02432c0 9.391907 -7.6136475 17.005554 -17.005554 17.005554l-150.905 0l0 0c-7.7819824E-4 0 -0.0014038086 -6.4086914E-4 -0.0014038086 -0.0014038086l0.0014038086 -85.02432l0 0c0 -9.391907 7.61364 -17.005554 17.005547 -17.005554z" fill-rule="nonzero"></path><path fill="#cfe2f3" d="m109.203224 413.27475l150.905 0c3.6621094E-4 0 7.324219E-4 1.5258789E-4 0.0010070801 4.272461E-4c2.4414062E-4 2.4414062E-4 3.9672852E-4 6.1035156E-4 3.9672852E-4 9.765625E-4l-0.0014038086 85.02432c0 9.391907 -7.613632 17.005554 -17.005539 17.005554l-150.905 0l0 0c-7.7819824E-4 0 -0.0014038086 -6.1035156E-4 -0.0014038086 -0.0014038086l0.0014038086 -85.02432l0 0c0 -9.391907 7.61364 -17.005554 17.005547 -17.005554z" fill-rule="nonzero"></path><path stroke="#000000" stroke-width="2.0" stroke-linejoin="round" stroke-linecap="butt" d="m109.203224 413.27475l150.905 0c3.6621094E-4 0 7.324219E-4 1.5258789E-4 0.0010070801 4.272461E-4c2.4414062E-4 2.4414062E-4 3.9672852E-4 6.1035156E-4 3.9672852E-4 9.765625E-4l-0.0014038086 85.02432c0 9.391907 -7.613632 17.005554 -17.005539 17.005554l-150.905 0l0 0c-7.7819824E-4 0 -0.0014038086 -6.1035156E-4 -0.0014038086 -0.0014038086l0.0014038086 -85.02432l0 0c0 -9.391907 7.61364 -17.005554 17.005547 -17.005554z" fill-rule="nonzero"></path><path fill="#cfe2f3" d="m136.99683 438.18195l150.905 0c3.6621094E-4 0 7.324219E-4 1.5258789E-4 9.765625E-4 4.272461E-4c2.746582E-4 2.4414062E-4 4.272461E-4 6.1035156E-4 4.272461E-4 9.765625E-4l-0.0014038086 85.02435c0 9.391907 -7.6136475 17.005493 -17.005554 17.005493l-150.905 0l0 0c-7.7056885E-4 0 -0.0013961792 -6.1035156E-4 -0.0013961792 -0.0013427734l0.0013961792 -85.02435l0 0c0 -9.391907 7.6136475 -17.005554 17.005554 -17.005554z" fill-rule="nonzero"></path><path stroke="#000000" stroke-width="2.0" stroke-linejoin="round" stroke-linecap="butt" d="m136.99683 438.18195l150.905 0c3.6621094E-4 0 7.324219E-4 1.5258789E-4 9.765625E-4 4.272461E-4c2.746582E-4 2.4414062E-4 4.272461E-4 6.1035156E-4 4.272461E-4 9.765625E-4l-0.0014038086 85.02435c0 9.391907 -7.6136475 17.005493 -17.005554 17.005493l-150.905 0l0 0c-7.7056885E-4 0 -0.0013961792 -6.1035156E-4 -0.0013961792 -0.0013427734l0.0013961792 -85.02435l0 0c0 -9.391907 7.6136475 -17.005554 17.005554 -17.005554z" fill-rule="nonzero"></path><path fill="#cfe2f3" d="m114.00033 254.28314l48.25582 -48.255814l48.255814 48.255814l-24.1279 0l0 67.65091l-48.25583 0l0 -67.65091z" fill-rule="nonzero"></path><path stroke="#000000" stroke-width="2.0" stroke-linejoin="round" stroke-linecap="butt" d="m114.00033 254.28314l48.25582 -48.255814l48.255814 48.255814l-24.1279 0l0 67.65091l-48.25583 0l0 -67.65091z" fill-rule="nonzero"></path><path fill="#cfe2f3" d="m686.4812 340.78812l150.90503 0c3.6621094E-4 0 7.324219E-4 1.2207031E-4 9.765625E-4 3.9672852E-4c2.4414062E-4 2.746582E-4 4.272461E-4 6.1035156E-4 4.272461E-4 9.765625E-4l-0.0014038086 85.02432c0 9.391907 -7.6136475 17.005554 -17.005554 17.005554l-150.90503 0l0 0c-7.324219E-4 0 -0.0014038086 -6.1035156E-4 -0.0014038086 -0.0014038086l0.0014038086 -85.02429l0 0c0 -9.391907 7.6136475 -17.005554 17.005554 -17.005554z" fill-rule="nonzero"></path><path stroke="#000000" stroke-width="2.0" stroke-linejoin="round" stroke-linecap="butt" d="m686.4812 340.78812l150.90503 0c3.6621094E-4 0 7.324219E-4 1.2207031E-4 9.765625E-4 3.9672852E-4c2.4414062E-4 2.746582E-4 4.272461E-4 6.1035156E-4 4.272461E-4 9.765625E-4l-0.0014038086 85.02432c0 9.391907 -7.6136475 17.005554 -17.005554 17.005554l-150.90503 0l0 0c-7.324219E-4 0 -0.0014038086 -6.1035156E-4 -0.0014038086 -0.0014038086l0.0014038086 -85.02429l0 0c0 -9.391907 7.6136475 -17.005554 17.005554 -17.005554z" fill-rule="nonzero"></path><path fill="#cfe2f3" d="m714.27484 365.6953l150.90497 0c3.6621094E-4 0 7.324219E-4 1.5258789E-4 9.765625E-4 3.9672852E-4c3.0517578E-4 2.746582E-4 4.272461E-4 6.1035156E-4 4.272461E-4 0.0010070801l-0.0014038086 85.02429c0 9.391907 -7.6136475 17.005554 -17.005554 17.005554l-150.90497 0l0 0c-7.9345703E-4 0 -0.0014038086 -6.1035156E-4 -0.0014038086 -0.0014038086l0.0014038086 -85.02429l0 0c0 -9.391907 7.6136475 -17.005554 17.005554 -17.005554z" fill-rule="nonzero"></path><path stroke="#000000" stroke-width="2.0" stroke-linejoin="round" stroke-linecap="butt" d="m714.27484 365.6953l150.90497 0c3.6621094E-4 0 7.324219E-4 1.5258789E-4 9.765625E-4 3.9672852E-4c3.0517578E-4 2.746582E-4 4.272461E-4 6.1035156E-4 4.272461E-4 0.0010070801l-0.0014038086 85.02429c0 9.391907 -7.6136475 17.005554 -17.005554 17.005554l-150.90497 0l0 0c-7.9345703E-4 0 -0.0014038086 -6.1035156E-4 -0.0014038086 -0.0014038086l0.0014038086 -85.02429l0 0c0 -9.391907 7.6136475 -17.005554 17.005554 -17.005554z" fill-rule="nonzero"></path><path fill="#cfe2f3" d="m742.0684 390.6025l150.90497 0c4.272461E-4 0 7.324219E-4 1.5258789E-4 0.0010375977 3.9672852E-4c2.4414062E-4 2.746582E-4 3.6621094E-4 6.4086914E-4 3.6621094E-4 0.0010070801l-0.0014038086 85.02432c0 9.391907 -7.6135864 17.005524 -17.005493 17.005524l-150.90503 0l0 0c-7.9345703E-4 0 -0.0014038086 -6.1035156E-4 -0.0014038086 -0.001373291l0.0014038086 -85.02432l0 0c0 -9.391907 7.6136475 -17.005554 17.005554 -17.005554z" fill-rule="nonzero"></path><path stroke="#000000" stroke-width="2.0" stroke-linejoin="round" stroke-linecap="butt" d="m742.0684 390.6025l150.90497 0c4.272461E-4 0 7.324219E-4 1.5258789E-4 0.0010375977 3.9672852E-4c2.4414062E-4 2.746582E-4 3.6621094E-4 6.4086914E-4 3.6621094E-4 0.0010070801l-0.0014038086 85.02432c0 9.391907 -7.6135864 17.005524 -17.005493 17.005524l-150.90503 0l0 0c-7.9345703E-4 0 -0.0014038086 -6.1035156E-4 -0.0014038086 -0.001373291l0.0014038086 -85.02432l0 0c0 -9.391907 7.6136475 -17.005554 17.005554 -17.005554z" fill-rule="nonzero"></path><path fill="#cfe2f3" d="m769.862 415.5097l150.90503 0c3.6621094E-4 0 7.324219E-4 1.5258789E-4 9.765625E-4 3.9672852E-4c2.4414062E-4 2.746582E-4 4.272461E-4 6.4086914E-4 4.272461E-4 0.0010070801l-0.0014038086 85.02432c0 9.391907 -7.6136475 17.005524 -17.005554 17.005524l-150.90503 0l0 0c-7.324219E-4 0 -0.0014038086 -6.1035156E-4 -0.0014038086 -0.0014038086l0.0014038086 -85.02429l0 0c0 -9.391907 7.6136475 -17.005554 17.005554 -17.005554z" fill-rule="nonzero"></path><path stroke="#000000" stroke-width="2.0" stroke-linejoin="round" stroke-linecap="butt" d="m769.862 415.5097l150.90503 0c3.6621094E-4 0 7.324219E-4 1.5258789E-4 9.765625E-4 3.9672852E-4c2.4414062E-4 2.746582E-4 4.272461E-4 6.4086914E-4 4.272461E-4 0.0010070801l-0.0014038086 85.02432c0 9.391907 -7.6136475 17.005524 -17.005554 17.005524l-150.90503 0l0 0c-7.324219E-4 0 -0.0014038086 -6.1035156E-4 -0.0014038086 -0.0014038086l0.0014038086 -85.02429l0 0c0 -9.391907 7.6136475 -17.005554 17.005554 -17.005554z" fill-rule="nonzero"></path></g></svg>

