<?xml version="1.0" standalone="yes"?>

<svg version="1.1" viewBox="0.0 0.0 960.0 540.0" fill="none" stroke="none" stroke-linecap="square" stroke-miterlimit="10" xmlns="http://www.w3.org/2000/svg" xmlns:xlink="http://www.w3.org/1999/xlink"><clipPath id="p.0"><path d="m0 0l960.0 0l0 540.0l-960.0 0l0 -540.0z" clip-rule="nonzero"></path></clipPath><g clip-path="url(#p.0)"><path fill="#000000" fill-opacity="0.0" d="m0 0l960.0 0l0 540.0l-960.0 0z" fill-rule="nonzero"></path><path fill="#666666" d="m0.12225115 27.586876l0 0c0 -15.122128 12.258906 -27.381035 27.381035 -27.381035l275.25958 0c7.261902 0 14.226379 2.8847792 19.361298 8.019719c5.1349487 5.13494 8.019745 12.099413 8.019745 19.361315l0 109.52085c0 15.122131 -12.258911 27.381027 -27.381042 27.381027l-275.25958 0c-15.1221285 0 -27.381035 -12.258896 -27.381035 -27.381027z" fill-rule="nonzero"></path><path stroke="#d9d9d9" stroke-width="2.0" stroke-linejoin="round" stroke-linecap="butt" d="m0.12225115 27.586876l0 0c0 -15.122128 12.258906 -27.381035 27.381035 -27.381035l275.25958 0c7.261902 0 14.226379 2.8847792 19.361298 8.019719c5.1349487 5.13494 8.019745 12.099413 8.019745 19.361315l0 109.52085c0 15.122131 -12.258911 27.381027 -27.381042 27.381027l-275.25958 0c-15.1221285 0 -27.381035 -12.258896 -27.381035 -27.381027z" fill-rule="nonzero"></path><path fill="#ffffff" d="m126.94298 95.3798l0 5.25l-2.625 0l0 -22.109375l2.171875 0l0.234375 1.78125l0.09375 0q1.046875 -0.890625 2.3125 -1.53125q1.265625 -0.640625 2.640625 -0.640625q1.5 0 2.65625 0.5625q1.15625 0.5625 1.9218597 1.609375q0.765625 1.03125 1.15625 2.484375q0.40625 1.453125 0.40625 3.28125q0 1.984375 -0.546875 3.546875q-0.53125 1.546875 -1.4687347 2.640625q-0.921875 1.078125 -2.140625 1.640625q-1.21875 0.5625 -2.5625 0.5625q-1.078125 0 -2.15625 -0.484375q-1.078125 -0.484375 -2.15625 -1.3125l0.0625 2.71875zm0 -4.765625q1.046875 0.890625 2.03125 1.265625q1.0 0.359375 1.78125 0.359375q0.953125 0 1.765625 -0.421875q0.8125 -0.4375 1.40625 -1.21875q0.59375 -0.78125 0.921875 -1.9375q0.34375 -1.15625 0.34375 -2.59375q0 -1.28125 -0.21875 -2.328125q-0.21875 -1.0625 -0.71875 -1.8125q-0.5 -0.75 -1.28125 -1.171875q-0.78125 -0.421875 -1.875 -0.421875q-0.984375 0 -2.0 0.546875q-1.0 0.546875 -2.15625 1.578125l0 8.15625zm15.041275 1.28125l4.671875 0l0 -15.046875l-3.71875 0l0 -1.6875q1.40625 -0.265625 2.4375 -0.625q1.046875 -0.375 1.890625 -0.890625l2.015625 0l0 18.25l4.21875 0l0 2.171875l-11.515625 0l0 -2.171875zm14.685303 -6.859375l7.359375 0l0 2.015625l-7.359375 0l0 -2.015625zm10.108276 1.28125q0 -1.953125 0.59375 -3.46875q0.59375 -1.515625 1.578125 -2.5625q1.0 -1.0625 2.296875 -1.609375q1.296875 -0.546875 2.734375 -0.546875q1.4375 0 2.734375 0.546875q1.296875 0.546875 2.28125 1.609375q1.0 1.046875 1.59375 2.5625q0.59375 1.515625 0.59375 3.46875q0 1.921875 -0.59375 3.453125q-0.59375 1.515625 -1.59375 2.5625q-0.984375 1.03125 -2.28125 1.578125q-1.296875 0.546875 -2.734375 0.546875q-1.4375 0 -2.734375 -0.546875q-1.296875 -0.546875 -2.296875 -1.578125q-0.984375 -1.046875 -1.578125 -2.5625q-0.59375 -1.53125 -0.59375 -3.453125zm2.71875 0q0 1.34375 0.3125 2.4375q0.328125 1.09375 0.921875 1.875q0.59375 0.78125 1.421875 1.21875q0.84375 0.421875 1.828125 0.421875q0.984375 0 1.8125 -0.421875q0.84375 -0.4375 1.4375 -1.21875q0.59375 -0.78125 0.90625 -1.875q0.328125 -1.09375 0.328125 -2.4375q0 -1.34375 -0.328125 -2.4375q-0.3125 -1.109375 -0.90625 -1.90625q-0.59375 -0.796875 -1.4375 -1.234375q-0.828125 -0.4375 -1.8125 -0.4375q-0.984375 0 -1.828125 0.4375q-0.828125 0.4375 -1.421875 1.234375q-0.59375 0.796875 -0.921875 1.90625q-0.3125 1.09375 -0.3125 2.4375zm15.781525 -15.03125l2.625 0l0 19.84375q0 0.640625 0.21875 0.890625q0.234375 0.25 0.515625 0.25q0.125 0 0.234375 0q0.125 0 0.34375 -0.0625l0.34375 1.984375q-0.25 0.125 -0.609375 0.1875q-0.34375 0.078125 -0.890625 0.078125q-1.5 0 -2.140625 -0.890625q-0.640625 -0.90625 -0.640625 -2.640625l0 -19.640625zm7.035034 15.03125q0 -1.875 0.5625 -3.390625q0.5625 -1.53125 1.484375 -2.578125q0.9375 -1.0625 2.140625 -1.640625q1.21875 -0.578125 2.5625 -0.578125q1.34375 0 2.328125 0.484375q1.0 0.484375 2.03125 1.3125l-0.125 -2.65625l0 -5.984375l2.65625 0l0 22.78125l-2.1875 0l-0.21875 -1.828125l-0.09375 0q-0.921875 0.90625 -2.125 1.5625q-1.203125 0.65625 -2.578125 0.65625q-2.953125 0 -4.703125 -2.109375q-1.734375 -2.125 -1.734375 -6.03125zm2.71875 -0.03125q0 2.828125 1.125 4.390625q1.125 1.5625 3.171875 1.5625q1.078125 0 2.03125 -0.515625q0.96875 -0.53125 1.9375 -1.625l0 -8.125q-1.0 -0.890625 -1.921875 -1.265625q-0.90625 -0.375 -1.859375 -0.375q-0.921875 0 -1.75 0.4375q-0.8125 0.4375 -1.421875 1.21875q-0.609375 0.78125 -0.96875 1.875q-0.34375 1.078125 -0.34375 2.421875z" fill-rule="nonzero"></path><path fill="#000000" fill-opacity="0.0" d="m522.0956 34.09449l48.251953 48.25197l-48.251953 48.25196l0 -24.125977l-132.44095 0l0 -48.25197l132.44095 0z" fill-rule="nonzero"></path><path stroke="#ffffff" stroke-width="2.0" stroke-linejoin="round" stroke-linecap="butt" d="m522.0956 34.09449l48.251953 48.25197l-48.251953 48.25196l0 -24.125977l-132.44095 0l0 -48.25197l132.44095 0z" fill-rule="nonzero"></path><path fill="#666666" d="m621.9569 27.58697l0 0c0 -15.122179 12.258911 -27.381126 27.381104 -27.381126l275.25348 0c7.261963 0 14.22644 2.884789 19.36139 8.019747c5.1349487 5.1349564 8.019775 12.099453 8.019775 19.36138l0 109.52122c0 15.122177 -12.258972 27.381119 -27.381165 27.381119l-275.25348 0c-15.122192 0 -27.381104 -12.258942 -27.381104 -27.381119z" fill-rule="nonzero"></path><path stroke="#d9d9d9" stroke-width="2.0" stroke-linejoin="round" stroke-linecap="butt" d="m621.9569 27.58697l0 0c0 -15.122179 12.258911 -27.381126 27.381104 -27.381126l275.25348 0c7.261963 0 14.22644 2.884789 19.36139 8.019747c5.1349487 5.1349564 8.019775 12.099453 8.019775 19.36138l0 109.52122c0 15.122177 -12.258972 27.381119 -27.381165 27.381119l-275.25348 0c-15.122192 0 -27.381104 -12.258942 -27.381104 -27.381119z" fill-rule="nonzero"></path><path fill="#ffffff" d="m742.23065 95.38007l0 5.25l-2.625 0l0 -22.109375l2.171875 0l0.234375 1.78125l0.09375 0q1.046875 -0.890625 2.3125 -1.53125q1.265625 -0.640625 2.640625 -0.640625q1.5 0 2.65625 0.5625q1.15625 0.5625 1.921875 1.609375q0.765625 1.03125 1.15625 2.484375q0.40625 1.453125 0.40625 3.28125q0 1.984375 -0.546875 3.546875q-0.53125 1.546875 -1.46875 2.640625q-0.921875 1.078125 -2.140625 1.640625q-1.21875 0.5625 -2.5625 0.5625q-1.078125 0 -2.15625 -0.484375q-1.078125 -0.484375 -2.15625 -1.3125l0.0625 2.71875zm0 -4.765625q1.046875 0.890625 2.03125 1.265625q1.0 0.359375 1.78125 0.359375q0.953125 0 1.765625 -0.421875q0.8125 -0.4375 1.40625 -1.21875q0.59375 -0.78125 0.921875 -1.9375q0.34375 -1.15625 0.34375 -2.59375q0 -1.28125 -0.21875 -2.328125q-0.21875 -1.0625 -0.71875 -1.8125q-0.5 -0.75 -1.28125 -1.171875q-0.78125 -0.421875 -1.875 -0.421875q-0.984375 0 -2.0 0.546875q-1.0 0.546875 -2.15625 1.578125l0 8.15625zm15.041321 1.28125l4.671814 0l0 -15.046875l-3.71875 0l0 -1.6875q1.40625 -0.265625 2.4375 -0.625q1.046875 -0.375 1.890625 -0.890625l2.015625 0l0 18.25l4.21875 0l0 2.171875l-11.515564 0l0 -2.171875zm14.685242 -6.859375l7.359375 0l0 2.015625l-7.359375 0l0 -2.015625zm11.264526 -6.515625l2.171875 0l0.234375 2.234375l0.09375 0q1.109375 -1.125 2.34375 -1.875q1.234375 -0.75 2.875 -0.75q2.453125 0 3.59375 1.546875q1.140625 1.53125 1.140625 4.53125l0 9.859375l-2.625 0l0 -9.5q0 -2.21875 -0.703125 -3.1875q-0.703125 -0.96875 -2.25 -0.96875q-1.21875 0 -2.140625 0.609375q-0.921875 0.59375 -2.109375 1.78125l0 11.265625l-2.625 0l0 -15.546875zm16.347778 7.796875q0 -1.90625 0.59375 -3.421875q0.59375 -1.53125 1.5625 -2.578125q0.984375 -1.0625 2.234375 -1.625q1.25 -0.5625 2.59375 -0.5625q1.46875 0 2.625 0.515625q1.171875 0.515625 1.953125 1.484375q0.796875 0.953125 1.203125 2.296875q0.421875 1.34375 0.421875 3.0q0 0.859375 -0.09375 1.4375l-10.5 0q0.15625 2.53125 1.546875 4.0q1.40625 1.46875 3.640625 1.46875q1.125 0 2.0625 -0.328125q0.9375 -0.34375 1.8125 -0.875l0.921875 1.71875q-1.015625 0.640625 -2.265625 1.125q-1.25 0.484375 -2.859375 0.484375q-1.5625 0 -2.921875 -0.5625q-1.359375 -0.5625 -2.375 -1.59375q-1.0 -1.046875 -1.578125 -2.546875q-0.578125 -1.515625 -0.578125 -3.4375zm10.890625 -1.171875q0 -2.40625 -1.015625 -3.671875q-1.0 -1.265625 -2.828125 -1.265625q-0.828125 0 -1.59375 0.34375q-0.75 0.328125 -1.359375 0.953125q-0.609375 0.625 -1.015625 1.546875q-0.390625 0.90625 -0.515625 2.09375l8.328125 0zm4.2783203 -6.625l2.6875 0l2.3125 8.984375q0.25 1.125 0.46875 2.1875q0.234375 1.046875 0.453125 2.140625l0.125 0q0.265625 -1.09375 0.515625 -2.15625q0.25 -1.078125 0.546875 -2.171875l2.390625 -8.984375l2.5625 0l2.4375 8.984375q0.28125 1.125 0.546875 2.1875q0.28125 1.046875 0.546875 2.140625l0.125 0q0.25 -1.09375 0.46875 -2.140625q0.234375 -1.0625 0.484375 -2.1875l2.28125 -8.984375l2.484375 0l-4.15625 15.546875l-3.203125 0l-2.234375 -8.359375q-0.296875 -1.109375 -0.53125 -2.1875q-0.234375 -1.09375 -0.53125 -2.28125l-0.125 0q-0.25 1.1875 -0.515625 2.296875q-0.25 1.09375 -0.5625 2.21875l-2.1875 8.3125l-3.0625 0l-4.328125 -15.546875z" fill-rule="nonzero"></path><path fill="#666666" d="m4.0736947 215.24051l0 0c0 -15.122177 12.258947 -27.381119 27.381126 -27.381119l275.25348 0c7.2619324 0 14.22644 2.884781 19.36139 8.019745c5.1349487 5.1349487 8.019745 12.099442 8.019745 19.361374l0 109.52121c0 15.122192 -12.258942 27.381134 -27.381134 27.381134l-275.25348 0c-15.122179 0 -27.381126 -12.258942 -27.381126 -27.381134z" fill-rule="nonzero"></path><path stroke="#d9d9d9" stroke-width="2.0" stroke-linejoin="round" stroke-linecap="butt" d="m4.0736947 215.24051l0 0c0 -15.122177 12.258947 -27.381119 27.381126 -27.381119l275.25348 0c7.2619324 0 14.22644 2.884781 19.36139 8.019745c5.1349487 5.1349487 8.019745 12.099442 8.019745 19.361374l0 109.52121c0 15.122192 -12.258942 27.381134 -27.381134 27.381134l-275.25348 0c-15.122179 0 -27.381126 -12.258942 -27.381126 -27.381134z" fill-rule="nonzero"></path><path fill="#ffffff" d="m130.89146 283.0336l0 5.25l-2.625 0l0 -22.109375l2.171875 0l0.234375 1.78125l0.09375 0q1.046875 -0.890625 2.3125 -1.53125q1.265625 -0.640625 2.640625 -0.640625q1.5 0 2.65625 0.5625q1.15625 0.5625 1.9218903 1.609375q0.765625 1.03125 1.15625 2.484375q0.40625 1.453125 0.40625 3.28125q0 1.984375 -0.546875 3.546875q-0.53125 1.546875 -1.4687653 2.640625q-0.921875 1.078125 -2.140625 1.640625q-1.21875 0.5625 -2.5625 0.5625q-1.078125 0 -2.15625 -0.484375q-1.078125 -0.484375 -2.15625 -1.3125l0.0625 2.71875zm0 -4.765625q1.046875 0.890625 2.03125 1.265625q1.0 0.359375 1.78125 0.359375q0.953125 0 1.765625 -0.421875q0.8125 -0.4375 1.40625 -1.21875q0.59375 -0.78125 0.921875 -1.9375q0.34375 -1.15625 0.34375 -2.59375q0 -1.28125 -0.21875 -2.328125q-0.21875 -1.0625 -0.71875 -1.8125q-0.5 -0.75 -1.28125 -1.171875q-0.78125 -0.421875 -1.875 -0.421875q-0.984375 0 -2.0 0.546875q-1.0 0.546875 -2.15625 1.578125l0 8.15625zm13.791306 1.890625q2.296875 -2.3125 4.09375 -4.15625q1.796875 -1.859375 3.0 -3.4375q1.21875 -1.59375 1.859375 -2.921875q0.640625 -1.328125 0.640625 -2.578125q0 -1.765625 -0.96875 -2.875q-0.953125 -1.125 -2.890625 -1.125q-1.28125 0 -2.375 0.71875q-1.09375 0.71875 -1.984375 1.75l-1.5 -1.515625q1.28125 -1.40625 2.71875 -2.25q1.4375 -0.84375 3.453125 -0.84375q2.84375 0 4.46875 1.65625q1.640625 1.640625 1.640625 4.359375q0 1.4375 -0.625 2.890625q-0.625 1.453125 -1.734375 3.015625q-1.09375 1.546875 -2.625 3.234375q-1.515625 1.671875 -3.328125 3.5625q0.828125 -0.0625 1.71875 -0.125q0.90625 -0.0625 1.703125 -0.0625l5.921875 0l0 2.265625l-13.1875 0l0 -1.5625zm15.935272 -7.46875l7.359375 0l0 2.015625l-7.359375 0l0 -2.015625zm10.108276 1.28125q0 -1.953125 0.59375 -3.46875q0.59375 -1.515625 1.578125 -2.5625q1.0 -1.0625 2.296875 -1.609375q1.296875 -0.546875 2.734375 -0.546875q1.4375 0 2.734375 0.546875q1.296875 0.546875 2.28125 1.609375q1.0 1.046875 1.59375 2.5625q0.59375 1.515625 0.59375 3.46875q0 1.921875 -0.59375 3.453125q-0.59375 1.515625 -1.59375 2.5625q-0.984375 1.03125 -2.28125 1.578125q-1.296875 0.546875 -2.734375 0.546875q-1.4375 0 -2.734375 -0.546875q-1.296875 -0.546875 -2.296875 -1.578125q-0.984375 -1.046875 -1.578125 -2.5625q-0.59375 -1.53125 -0.59375 -3.453125zm2.71875 0q0 1.34375 0.3125 2.4375q0.328125 1.09375 0.921875 1.875q0.59375 0.78125 1.421875 1.21875q0.84375 0.421875 1.828125 0.421875q0.984375 0 1.8125 -0.421875q0.84375 -0.4375 1.4375 -1.21875q0.59375 -0.78125 0.90625 -1.875q0.328125 -1.09375 0.328125 -2.4375q0 -1.34375 -0.328125 -2.4375q-0.3125 -1.109375 -0.90625 -1.90625q-0.59375 -0.796875 -1.4375 -1.234375q-0.828125 -0.4375 -1.8125 -0.4375q-0.984375 0 -1.828125 0.4375q-0.828125 0.4375 -1.421875 1.234375q-0.59375 0.796875 -0.921875 1.90625q-0.3125 1.09375 -0.3125 2.4375zm15.781555 -15.03125l2.625 0l0 19.84375q0 0.640625 0.21875 0.890625q0.234375 0.25 0.515625 0.25q0.125 0 0.234375 0q0.125 0 0.34375 -0.0625l0.34375 1.984375q-0.25 0.125 -0.609375 0.1875q-0.34375 0.078125 -0.890625 0.078125q-1.5 0 -2.140625 -0.890625q-0.640625 -0.90625 -0.640625 -2.640625l0 -19.640625zm7.0350037 15.03125q0 -1.875 0.5625 -3.390625q0.5625 -1.53125 1.484375 -2.578125q0.9375 -1.0625 2.140625 -1.640625q1.21875 -0.578125 2.5625 -0.578125q1.34375 0 2.328125 0.484375q1.0 0.484375 2.03125 1.3125l-0.125 -2.65625l0 -5.984375l2.65625 0l0 22.78125l-2.1875 0l-0.21875 -1.828125l-0.09375 0q-0.921875 0.90625 -2.125 1.5625q-1.203125 0.65625 -2.578125 0.65625q-2.953125 0 -4.703125 -2.109375q-1.734375 -2.125 -1.734375 -6.03125zm2.71875 -0.03125q0 2.828125 1.125 4.390625q1.125 1.5625 3.171875 1.5625q1.078125 0 2.03125 -0.515625q0.96875 -0.53125 1.9375 -1.625l0 -8.125q-1.0 -0.890625 -1.921875 -1.265625q-0.90625 -0.375 -1.859375 -0.375q-0.921875 0 -1.75 0.4375q-0.8125 0.4375 -1.421875 1.21875q-0.609375 0.78125 -0.96875 1.875q-0.34375 1.078125 -0.34375 2.421875z" fill-rule="nonzero"></path><path fill="#000000" fill-opacity="0.0" d="m526.04706 221.74803l48.251953 48.25197l-48.251953 48.251984l0 -24.126007l-132.44098 0l0 -48.25197l132.44098 0z" fill-rule="nonzero"></path><path stroke="#ffffff" stroke-width="2.0" stroke-linejoin="round" stroke-linecap="butt" d="m526.04706 221.74803l48.251953 48.25197l-48.251953 48.251984l0 -24.126007l-132.44098 0l0 -48.25197l132.44098 0z" fill-rule="nonzero"></path><path fill="#666666" d="m625.9083 215.24051l0 0c0 -15.122177 12.258972 -27.381119 27.381165 -27.381119l275.25348 0c7.261902 0 14.22644 2.884781 19.36139 8.019745c5.1349487 5.1349487 8.019714 12.099457 8.019714 19.361374l0 109.52121c0 15.122192 -12.258911 27.381134 -27.381104 27.381134l-275.25348 0c-15.122192 0 -27.381165 -12.258942 -27.381165 -27.381134z" fill-rule="nonzero"></path><path stroke="#d9d9d9" stroke-width="2.0" stroke-linejoin="round" stroke-linecap="butt" d="m625.9083 215.24051l0 0c0 -15.122177 12.258972 -27.381119 27.381165 -27.381119l275.25348 0c7.261902 0 14.22644 2.884781 19.36139 8.019745c5.1349487 5.1349487 8.019714 12.099457 8.019714 19.361374l0 109.52121c0 15.122192 -12.258911 27.381134 -27.381104 27.381134l-275.25348 0c-15.122192 0 -27.381165 -12.258942 -27.381165 -27.381134z" fill-rule="nonzero"></path><path fill="#ffffff" d="m746.1821 283.03363l0 5.25l-2.625 0l0 -22.109375l2.171875 0l0.234375 1.78125l0.09375 0q1.046875 -0.890625 2.3125 -1.53125q1.265625 -0.640625 2.640625 -0.640625q1.5 0 2.65625 0.5625q1.15625 0.5625 1.921875 1.609375q0.765625 1.03125 1.15625 2.484375q0.40625 1.453125 0.40625 3.28125q0 1.984375 -0.546875 3.546875q-0.53125 1.546875 -1.46875 2.640625q-0.921875 1.078125 -2.140625 1.640625q-1.21875 0.5625 -2.5625 0.5625q-1.078125 0 -2.15625 -0.484375q-1.078125 -0.484375 -2.15625 -1.3125l0.0625 2.71875zm0 -4.765625q1.046875 0.890625 2.03125 1.265625q1.0 0.359375 1.78125 0.359375q0.953125 0 1.765625 -0.421875q0.8125 -0.4375 1.40625 -1.21875q0.59375 -0.78125 0.921875 -1.9375q0.34375 -1.15625 0.34375 -2.59375q0 -1.28125 -0.21875 -2.328125q-0.21875 -1.0625 -0.71875 -1.8125q-0.5 -0.75 -1.28125 -1.171875q-0.78125 -0.421875 -1.875 -0.421875q-0.984375 0 -2.0 0.546875q-1.0 0.546875 -2.15625 1.578125l0 8.15625zm13.79126 1.890625q2.296875 -2.3125 4.09375 -4.15625q1.796875 -1.859375 3.0 -3.4375q1.21875 -1.59375 1.859375 -2.921875q0.640625 -1.328125 0.640625 -2.578125q0 -1.765625 -0.96875 -2.875q-0.953125 -1.125 -2.890625 -1.125q-1.28125 0 -2.375 0.71875q-1.09375 0.71875 -1.984375 1.75l-1.5 -1.515625q1.28125 -1.40625 2.71875 -2.25q1.4375 -0.84375 3.453125 -0.84375q2.84375 0 4.46875 1.65625q1.640625 1.640625 1.640625 4.359375q0 1.4375 -0.625 2.890625q-0.625 1.453125 -1.734375 3.015625q-1.09375 1.546875 -2.625 3.234375q-1.515625 1.671875 -3.328125 3.5625q0.828125 -0.0625 1.71875 -0.125q0.90625 -0.0625 1.703125 -0.0625l5.921875 0l0 2.265625l-13.1875 0l0 -1.5625zm15.935303 -7.46875l7.359375 0l0 2.015625l-7.359375 0l0 -2.015625zm11.264526 -6.515625l2.171875 0l0.234375 2.234375l0.09375 0q1.109375 -1.125 2.34375 -1.875q1.234375 -0.75 2.875 -0.75q2.453125 0 3.59375 1.546875q1.140625 1.53125 1.140625 4.53125l0 9.859375l-2.625 0l0 -9.5q0 -2.21875 -0.703125 -3.1875q-0.703125 -0.96875 -2.25 -0.96875q-1.21875 0 -2.140625 0.609375q-0.921875 0.59375 -2.109375 1.78125l0 11.265625l-2.625 0l0 -15.546875zm16.347778 7.796875q0 -1.90625 0.59375 -3.421875q0.59375 -1.53125 1.5625 -2.578125q0.984375 -1.0625 2.234375 -1.625q1.25 -0.5625 2.59375 -0.5625q1.46875 0 2.625 0.515625q1.171875 0.515625 1.953125 1.484375q0.796875 0.953125 1.203125 2.296875q0.421875 1.34375 0.421875 3.0q0 0.859375 -0.09375 1.4375l-10.5 0q0.15625 2.53125 1.546875 4.0q1.40625 1.46875 3.640625 1.46875q1.125 0 2.0625 -0.328125q0.9375 -0.34375 1.8125 -0.875l0.921875 1.71875q-1.015625 0.640625 -2.265625 1.125q-1.25 0.484375 -2.859375 0.484375q-1.5625 0 -2.921875 -0.5625q-1.359375 -0.5625 -2.375 -1.59375q-1.0 -1.046875 -1.578125 -2.546875q-0.578125 -1.515625 -0.578125 -3.4375zm10.890625 -1.171875q0 -2.40625 -1.015625 -3.671875q-1.0 -1.265625 -2.828125 -1.265625q-0.828125 0 -1.59375 0.34375q-0.75 0.328125 -1.359375 0.953125q-0.609375 0.625 -1.015625 1.546875q-0.390625 0.90625 -0.515625 2.09375l8.328125 0zm4.2782593 -6.625l2.6875 0l2.3125 8.984375q0.25 1.125 0.46875 2.1875q0.234375 1.046875 0.453125 2.140625l0.125 0q0.265625 -1.09375 0.515625 -2.15625q0.25 -1.078125 0.546875 -2.171875l2.390625 -8.984375l2.5625 0l2.4375 8.984375q0.28125 1.125 0.546875 2.1875q0.28125 1.046875 0.546875 2.140625l0.125 0q0.25 -1.09375 0.46875 -2.140625q0.234375 -1.0625 0.484375 -2.1875l2.28125 -8.984375l2.484375 0l-4.15625 15.546875l-3.203125 0l-2.234375 -8.359375q-0.296875 -1.109375 -0.53125 -2.1875q-0.234375 -1.09375 -0.53125 -2.28125l-0.125 0q-0.25 1.1875 -0.515625 2.296875q-0.25 1.09375 -0.5625 2.21875l-2.1875 8.3125l-3.0625 0l-4.328125 -15.546875z" fill-rule="nonzero"></path><path fill="#666666" d="m8.026451 396.8022l0 0c0 -15.122162 12.258947 -27.381134 27.381126 -27.381134l275.25348 0c7.2619324 0 14.22641 2.8847961 19.36139 8.019745c5.1349487 5.1349792 8.019745 12.099457 8.019745 19.36139l0 109.52121c0 15.122162 -12.258942 27.381134 -27.381134 27.381134l-275.25348 0c-15.122179 0 -27.381126 -12.258972 -27.381126 -27.381134z" fill-rule="nonzero"></path><path stroke="#d9d9d9" stroke-width="2.0" stroke-linejoin="round" stroke-linecap="butt" d="m8.026451 396.8022l0 0c0 -15.122162 12.258947 -27.381134 27.381126 -27.381134l275.25348 0c7.2619324 0 14.22641 2.8847961 19.36139 8.019745c5.1349487 5.1349792 8.019745 12.099457 8.019745 19.36139l0 109.52121c0 15.122162 -12.258942 27.381134 -27.381134 27.381134l-275.25348 0c-15.122179 0 -27.381126 -12.258972 -27.381126 -27.381134z" fill-rule="nonzero"></path><path fill="#ffffff" d="m134.84422 464.5953l0 5.25l-2.625 0l0 -22.109375l2.171875 0l0.234375 1.78125l0.09375 0q1.046875 -0.890625 2.3125 -1.53125q1.265625 -0.640625 2.640625 -0.640625q1.5 0 2.65625 0.5625q1.15625 0.5625 1.9218903 1.609375q0.765625 1.03125 1.15625 2.484375q0.40625 1.453125 0.40625 3.28125q0 1.984375 -0.546875 3.546875q-0.53125 1.546875 -1.4687653 2.640625q-0.921875 1.078125 -2.140625 1.640625q-1.21875 0.5625 -2.5625 0.5625q-1.078125 0 -2.15625 -0.484375q-1.078125 -0.484375 -2.15625 -1.3125l0.0625 2.71875zm0 -4.765625q1.046875 0.890625 2.03125 1.265625q1.0 0.359375 1.78125 0.359375q0.953125 0 1.765625 -0.421875q0.8125 -0.4375 1.40625 -1.21875q0.59375 -0.78125 0.921875 -1.9375q0.34375 -1.15625 0.34375 -2.59375q0 -1.28125 -0.21875 -2.328125q-0.21875 -1.0625 -0.71875 -1.8125q-0.5 -0.75 -1.28125 -1.171875q-0.78125 -0.421875 -1.875 -0.421875q-0.984375 0 -2.0 0.546875q-1.0 0.546875 -2.15625 1.578125l0 8.15625zm14.681931 -0.765625q0.9375 0.953125 2.15625 1.6875q1.234375 0.734375 3.0625 0.734375q1.859375 0 3.03125 -1.0q1.1875 -1.015625 1.1875 -2.734375q0 -0.90625 -0.34375 -1.65625q-0.328125 -0.75 -1.09375 -1.296875q-0.765625 -0.546875 -2.015625 -0.828125q-1.25 -0.28125 -3.0625 -0.28125l0 -2.015625q1.625 0 2.71875 -0.28125q1.109375 -0.296875 1.796875 -0.8125q0.6875 -0.515625 0.96875 -1.21875q0.296875 -0.703125 0.296875 -1.5q0 -1.5 -0.953125 -2.359375q-0.9375 -0.875 -2.5625 -0.875q-1.28125 0 -2.359375 0.578125q-1.0625 0.578125 -1.984375 1.5l-1.421875 -1.65625q1.1875 -1.125 2.609375 -1.84375q1.421875 -0.71875 3.25 -0.71875q1.34375 0 2.46875 0.359375q1.125 0.34375 1.9375 1.0q0.8125 0.65625 1.25 1.625q0.453125 0.953125 0.453125 2.203125q0 1.84375 -1.03125 3.03125q-1.015625 1.1875 -2.671875 1.828125l0 0.125q0.921875 0.21875 1.71875 0.65625q0.8125 0.4375 1.40625 1.09375q0.609375 0.65625 0.9375 1.515625q0.34375 0.859375 0.34375 1.921875q0 1.34375 -0.53125 2.4375q-0.515625 1.078125 -1.4375 1.828125q-0.90625 0.75 -2.125 1.15625q-1.21875 0.40625 -2.625 0.40625q-1.203125 0 -2.21875 -0.25q-1.015625 -0.234375 -1.84375 -0.625q-0.828125 -0.40625 -1.484375 -0.921875q-0.65625 -0.515625 -1.171875 -1.09375l1.34375 -1.71875zm15.044647 -4.8125l7.359375 0l0 2.015625l-7.359375 0l0 -2.015625zm10.108276 1.28125q0 -1.953125 0.59375 -3.46875q0.59375 -1.515625 1.578125 -2.5625q1.0 -1.0625 2.296875 -1.609375q1.296875 -0.546875 2.734375 -0.546875q1.4375 0 2.734375 0.546875q1.296875 0.546875 2.28125 1.609375q1.0 1.046875 1.59375 2.5625q0.59375 1.515625 0.59375 3.46875q0 1.921875 -0.59375 3.453125q-0.59375 1.515625 -1.59375 2.5625q-0.984375 1.03125 -2.28125 1.578125q-1.296875 0.546875 -2.734375 0.546875q-1.4375 0 -2.734375 -0.546875q-1.296875 -0.546875 -2.296875 -1.578125q-0.984375 -1.046875 -1.578125 -2.5625q-0.59375 -1.53125 -0.59375 -3.453125zm2.71875 0q0 1.34375 0.3125 2.4375q0.328125 1.09375 0.921875 1.875q0.59375 0.78125 1.421875 1.21875q0.84375 0.421875 1.828125 0.421875q0.984375 0 1.8125 -0.421875q0.84375 -0.4375 1.4375 -1.21875q0.59375 -0.78125 0.90625 -1.875q0.328125 -1.09375 0.328125 -2.4375q0 -1.34375 -0.328125 -2.4375q-0.3125 -1.109375 -0.90625 -1.90625q-0.59375 -0.796875 -1.4375 -1.234375q-0.828125 -0.4375 -1.8125 -0.4375q-0.984375 0 -1.828125 0.4375q-0.828125 0.4375 -1.421875 1.234375q-0.59375 0.796875 -0.921875 1.90625q-0.3125 1.09375 -0.3125 2.4375zm15.781555 -15.03125l2.625 0l0 19.84375q0 0.640625 0.21875 0.890625q0.234375 0.25 0.515625 0.25q0.125 0 0.234375 0q0.125 0 0.34375 -0.0625l0.34375 1.984375q-0.25 0.125 -0.609375 0.1875q-0.34375 0.078125 -0.890625 0.078125q-1.5 0 -2.140625 -0.890625q-0.640625 -0.90625 -0.640625 -2.640625l0 -19.640625zm7.0350037 15.03125q0 -1.875 0.5625 -3.390625q0.5625 -1.53125 1.484375 -2.578125q0.9375 -1.0625 2.140625 -1.640625q1.21875 -0.578125 2.5625 -0.578125q1.34375 0 2.328125 0.484375q1.0 0.484375 2.03125 1.3125l-0.125 -2.65625l0 -5.984375l2.65625 0l0 22.78125l-2.1875 0l-0.21875 -1.828125l-0.09375 0q-0.921875 0.90625 -2.125 1.5625q-1.203125 0.65625 -2.578125 0.65625q-2.953125 0 -4.703125 -2.109375q-1.734375 -2.125 -1.734375 -6.03125zm2.71875 -0.03125q0 2.828125 1.125 4.390625q1.125 1.5625 3.171875 1.5625q1.078125 0 2.03125 -0.515625q0.96875 -0.53125 1.9375 -1.625l0 -8.125q-1.0 -0.890625 -1.921875 -1.265625q-0.90625 -0.375 -1.859375 -0.375q-0.921875 0 -1.75 0.4375q-0.8125 0.4375 -1.421875 1.21875q-0.609375 0.78125 -0.96875 1.875q-0.34375 1.078125 -0.34375 2.421875z" fill-rule="nonzero"></path><path fill="#000000" fill-opacity="0.0" d="m529.9998 403.30972l48.251953 48.251953l-48.251953 48.251984l0 -24.126007l-132.44098 0l0 -48.251953l132.44098 0z" fill-rule="nonzero"></path><path stroke="#ffffff" stroke-width="2.0" stroke-linejoin="round" stroke-linecap="butt" d="m529.9998 403.30972l48.251953 48.251953l-48.251953 48.251984l0 -24.126007l-132.44098 0l0 -48.251953l132.44098 0z" fill-rule="nonzero"></path><path fill="#666666" d="m629.8611 396.8022l0 0c0 -15.122162 12.258972 -27.381104 27.381165 -27.381104l275.25348 0c7.261902 0 14.22644 2.8847656 19.36139 8.019745c5.1349487 5.1349487 8.019714 12.099426 8.019714 19.361359l0 109.52121c0 15.122162 -12.258911 27.381134 -27.381104 27.381134l-275.25348 0c-15.122192 0 -27.381165 -12.258972 -27.381165 -27.381134z" fill-rule="nonzero"></path><path stroke="#d9d9d9" stroke-width="2.0" stroke-linejoin="round" stroke-linecap="butt" d="m629.8611 396.8022l0 0c0 -15.122162 12.258972 -27.381104 27.381165 -27.381104l275.25348 0c7.261902 0 14.22644 2.8847656 19.36139 8.019745c5.1349487 5.1349487 8.019714 12.099426 8.019714 19.361359l0 109.52121c0 15.122162 -12.258911 27.381134 -27.381104 27.381134l-275.25348 0c-15.122192 0 -27.381165 -12.258972 -27.381165 -27.381134z" fill-rule="nonzero"></path><path fill="#ffffff" d="m750.1349 464.5953l0 5.25l-2.625 0l0 -22.109375l2.171875 0l0.234375 1.78125l0.09375 0q1.046875 -0.890625 2.3125 -1.53125q1.265625 -0.640625 2.640625 -0.640625q1.5 0 2.65625 0.5625q1.15625 0.5625 1.921875 1.609375q0.765625 1.03125 1.15625 2.484375q0.40625 1.453125 0.40625 3.28125q0 1.984375 -0.546875 3.546875q-0.53125 1.546875 -1.46875 2.640625q-0.921875 1.078125 -2.140625 1.640625q-1.21875 0.5625 -2.5625 0.5625q-1.078125 0 -2.15625 -0.484375q-1.078125 -0.484375 -2.15625 -1.3125l0.0625 2.71875zm0 -4.765625q1.046875 0.890625 2.03125 1.265625q1.0 0.359375 1.78125 0.359375q0.953125 0 1.765625 -0.421875q0.8125 -0.4375 1.40625 -1.21875q0.59375 -0.78125 0.921875 -1.9375q0.34375 -1.15625 0.34375 -2.59375q0 -1.28125 -0.21875 -2.328125q-0.21875 -1.0625 -0.71875 -1.8125q-0.5 -0.75 -1.28125 -1.171875q-0.78125 -0.421875 -1.875 -0.421875q-0.984375 0 -2.0 0.546875q-1.0 0.546875 -2.15625 1.578125l0 8.15625zm14.681885 -0.765625q0.9375 0.953125 2.15625 1.6875q1.234375 0.734375 3.0625 0.734375q1.859375 0 3.03125 -1.0q1.1875 -1.015625 1.1875 -2.734375q0 -0.90625 -0.34375 -1.65625q-0.328125 -0.75 -1.09375 -1.296875q-0.765625 -0.546875 -2.015625 -0.828125q-1.25 -0.28125 -3.0625 -0.28125l0 -2.015625q1.625 0 2.71875 -0.28125q1.109375 -0.296875 1.796875 -0.8125q0.6875 -0.515625 0.96875 -1.21875q0.296875 -0.703125 0.296875 -1.5q0 -1.5 -0.953125 -2.359375q-0.9375 -0.875 -2.5625 -0.875q-1.28125 0 -2.359375 0.578125q-1.0625 0.578125 -1.984375 1.5l-1.421875 -1.65625q1.1875 -1.125 2.609375 -1.84375q1.421875 -0.71875 3.25 -0.71875q1.34375 0 2.46875 0.359375q1.125 0.34375 1.9375 1.0q0.8125 0.65625 1.25 1.625q0.453125 0.953125 0.453125 2.203125q0 1.84375 -1.03125 3.03125q-1.015625 1.1875 -2.671875 1.828125l0 0.125q0.921875 0.21875 1.71875 0.65625q0.8125 0.4375 1.40625 1.09375q0.609375 0.65625 0.9375 1.515625q0.34375 0.859375 0.34375 1.921875q0 1.34375 -0.53125 2.4375q-0.515625 1.078125 -1.4375 1.828125q-0.90625 0.75 -2.125 1.15625q-1.21875 0.40625 -2.625 0.40625q-1.203125 0 -2.21875 -0.25q-1.015625 -0.234375 -1.84375 -0.625q-0.828125 -0.40625 -1.484375 -0.921875q-0.65625 -0.515625 -1.171875 -1.09375l1.34375 -1.71875zm15.044678 -4.8125l7.359375 0l0 2.015625l-7.359375 0l0 -2.015625zm11.264526 -6.515625l2.171875 0l0.234375 2.234375l0.09375 0q1.109375 -1.125 2.34375 -1.875q1.234375 -0.75 2.875 -0.75q2.453125 0 3.59375 1.546875q1.140625 1.53125 1.140625 4.53125l0 9.859375l-2.625 0l0 -9.5q0 -2.21875 -0.703125 -3.1875q-0.703125 -0.96875 -2.25 -0.96875q-1.21875 0 -2.140625 0.609375q-0.921875 0.59375 -2.109375 1.78125l0 11.265625l-2.625 0l0 -15.546875zm16.347778 7.796875q0 -1.90625 0.59375 -3.421875q0.59375 -1.53125 1.5625 -2.578125q0.984375 -1.0625 2.234375 -1.625q1.25 -0.5625 2.59375 -0.5625q1.46875 0 2.625 0.515625q1.171875 0.515625 1.953125 1.484375q0.796875 0.953125 1.203125 2.296875q0.421875 1.34375 0.421875 3.0q0 0.859375 -0.09375 1.4375l-10.5 0q0.15625 2.53125 1.546875 4.0q1.40625 1.46875 3.640625 1.46875q1.125 0 2.0625 -0.328125q0.9375 -0.34375 1.8125 -0.875l0.921875 1.71875q-1.015625 0.640625 -2.265625 1.125q-1.25 0.484375 -2.859375 0.484375q-1.5625 0 -2.921875 -0.5625q-1.359375 -0.5625 -2.375 -1.59375q-1.0 -1.046875 -1.578125 -2.546875q-0.578125 -1.515625 -0.578125 -3.4375zm10.890625 -1.171875q0 -2.40625 -1.015625 -3.671875q-1.0 -1.265625 -2.828125 -1.265625q-0.828125 0 -1.59375 0.34375q-0.75 0.328125 -1.359375 0.953125q-0.609375 0.625 -1.015625 1.546875q-0.390625 0.90625 -0.515625 2.09375l8.328125 0zm4.2782593 -6.625l2.6875 0l2.3125 8.984375q0.25 1.125 0.46875 2.1875q0.234375 1.046875 0.453125 2.140625l0.125 0q0.265625 -1.09375 0.515625 -2.15625q0.25 -1.078125 0.546875 -2.171875l2.390625 -8.984375l2.5625 0l2.4375 8.984375q0.28125 1.125 0.546875 2.1875q0.28125 1.046875 0.546875 2.140625l0.125 0q0.25 -1.09375 0.46875 -2.140625q0.234375 -1.0625 0.484375 -2.1875l2.28125 -8.984375l2.484375 0l-4.15625 15.546875l-3.203125 0l-2.234375 -8.359375q-0.296875 -1.109375 -0.53125 -2.1875q-0.234375 -1.09375 -0.53125 -2.28125l-0.125 0q-0.25 1.1875 -0.515625 2.296875q-0.25 1.09375 -0.5625 2.21875l-2.1875 8.3125l-3.0625 0l-4.328125 -15.546875z" fill-rule="nonzero"></path></g></svg>

